<svg width="16" height="16" viewBox="0 0 16 16" fill="none" xmlns="http://www.w3.org/2000/svg">
<g clip-path="url(#clip0_124_15)">
<path d="M1 0V16H4.55556V10.6667L9.88889 8.88889V1.77778L4.55556 0H1ZM11.6667 2.37035V3.55556V10.0741L6.33333 11.8519V15.4074L15.2222 12.4444V10.6667V8.88889V3.55556L11.6667 2.37035ZM4.55556 3.55556L6.32965 4.06625V6.53785L4.55556 7.11111V3.55556Z" fill="white"/>
<path d="M11.5121 3.35944C11.2431 3.35888 10.9812 3.44567 10.7658 3.60675L10.7568 3.59775L9.50213 4.85238L9.2512 4.60147C9.00027 4.35054 8.74935 4.60147 8.74935 4.60147L7.99654 5.35425C7.74561 5.60518 7.99654 5.85613 7.99654 5.85613L8.21801 6.07756L4.44288 9.88544C4.44288 9.88544 4.11631 10.2402 4.14851 11.0228C4.14851 11.0228 4.13864 11.4247 3.92948 11.6797L3.97076 11.7209L3.59091 12.1008C3.59091 12.1008 3.33997 12.3517 3.54963 12.5614C3.7593 12.771 4.01026 12.5201 4.01026 12.5201L4.3901 12.1403L4.43135 12.1815C4.68633 11.9724 5.08823 11.9625 5.08823 11.9625C5.87079 11.9947 6.2256 11.6682 6.2256 11.6682L10.0335 7.89303L10.2549 8.11447C10.5058 8.3654 10.7568 8.11447 10.7568 8.11447L11.5096 7.36169C11.7605 7.11076 11.5096 6.85985 11.5096 6.85985L11.2586 6.60891L12.5133 5.35425L12.5043 5.34525C12.6831 5.10605 12.7698 4.81042 12.7484 4.51251C12.727 4.2146 12.599 3.93438 12.3878 3.72319C12.3876 3.72298 12.3874 3.72277 12.3872 3.72256C12.1549 3.49066 11.8403 3.36011 11.5121 3.35944V3.35944Z" fill="white" stroke="black" stroke-width="0.15"/>
</g>
<defs>
<clipPath id="clip0_124_15">
<rect width="16" height="16" fill="white"/>
</clipPath>
</defs>
</svg>
